<svg width="542" height="92" viewBox="0 0 542 92" fill="none" xmlns="http://www.w3.org/2000/svg">
<path d="M66.3161 76.8245C84.6286 76.8245 99.4739 61.9792 99.4739 43.6666C99.4739 31.7916 93.2314 21.3745 83.8488 15.5181C96.3208 21.1508 105 33.6978 105 48.2719C105 68.1105 88.9179 84.1929 69.0792 84.1929C49.2406 84.1929 33.1582 68.1105 33.1582 48.2719C33.1582 47.4828 33.1837 46.6995 33.2338 45.9231C34.3937 63.1833 48.7618 76.8245 66.3161 76.8245Z" fill="#FDD65B"/>
<path d="M38.6842 16.0352C20.3716 16.0352 5.52631 30.8804 5.52631 49.193C5.52631 61.0681 11.7689 71.4852 21.1514 77.3416C8.67946 71.7088 -1.27411e-06 59.1619 0 44.5878C1.73435e-06 24.7491 16.0824 8.66675 35.921 8.66675C55.7597 8.66675 71.842 24.7491 71.842 44.5878C71.842 45.3769 71.8166 46.1601 71.7665 46.9366C70.6066 29.6764 56.2384 16.0352 38.6842 16.0352Z" fill="#FDD65B"/>
<path d="M155.134 74.438C153.407 74.438 151.755 74.1913 150.176 73.698C148.647 73.254 147.315 72.2673 146.18 70.738C146.328 69.554 146.673 67.8273 147.216 65.558C147.808 63.2887 148.523 60.7233 149.362 57.862C150.201 54.9513 151.089 51.9667 152.026 48.908C152.963 45.8493 153.876 42.9387 154.764 40.176C155.701 37.364 156.515 34.922 157.206 32.85C157.946 30.7287 158.489 29.1993 158.834 28.262C158.982 27.8673 159.229 27.2753 159.574 26.486C159.919 25.6967 160.363 24.8827 160.906 24.044C161.449 23.2053 162.065 22.5147 162.756 21.972C163.496 21.38 164.285 21.084 165.124 21.084C165.963 21.084 166.9 21.4293 167.936 22.12C166.407 25.5733 164.853 29.4213 163.274 33.664C161.745 37.8573 160.265 42.1987 158.834 46.688C157.453 51.128 156.17 55.4693 154.986 59.712C153.851 63.9053 152.914 67.7533 152.174 71.256C152.569 71.404 153.111 71.5027 153.802 71.552C154.542 71.6507 155.233 71.7 155.874 71.7C159.081 71.7 162.139 70.9107 165.05 69.332C167.961 67.8027 170.625 65.7553 173.042 63.19C175.509 60.5753 177.655 57.6647 179.48 54.458C181.305 51.202 182.711 47.872 183.698 44.468C184.685 41.064 185.178 37.808 185.178 34.7C185.178 30.704 184.487 27.4727 183.106 25.006C181.774 22.49 179.924 20.6647 177.556 19.53C175.188 18.346 172.475 17.754 169.416 17.754C166.209 17.754 163.323 18.346 160.758 19.53C158.193 20.6647 156.17 22.2433 154.69 24.266C153.259 26.2393 152.544 28.5087 152.544 31.074C152.544 31.6167 152.593 32.2087 152.692 32.85C152.791 33.442 152.963 34.034 153.21 34.626C151.089 34.626 149.559 34.182 148.622 33.294C147.734 32.3567 147.29 31.222 147.29 29.89C147.29 28.1633 147.907 26.412 149.14 24.636C150.423 22.86 152.174 21.232 154.394 19.752C156.663 18.2227 159.278 17.014 162.238 16.126C165.198 15.1887 168.405 14.72 171.858 14.72C176.693 14.72 180.565 15.6573 183.476 17.532C186.387 19.3573 188.483 21.8487 189.766 25.006C191.098 28.114 191.764 31.592 191.764 35.44C191.764 39.6827 191.073 43.7527 189.692 47.65C188.36 51.498 186.485 55.05 184.068 58.306C181.7 61.562 178.937 64.3987 175.78 66.816C172.672 69.2333 169.342 71.108 165.79 72.44C162.287 73.772 158.735 74.438 155.134 74.438ZM195.675 70.368C193.455 70.368 191.926 69.628 191.087 68.148C190.298 66.7173 189.903 65.1387 189.903 63.412C189.903 61.8333 190.15 60.23 190.643 58.602C191.136 56.9247 191.802 55.3707 192.641 53.94C193.529 52.5093 194.491 51.3747 195.527 50.536C196.612 49.648 197.698 49.204 198.783 49.204C199.128 49.204 199.523 49.278 199.967 49.426C200.46 49.5247 200.806 49.6973 201.003 49.944C200.411 50.684 199.794 51.5967 199.153 52.682C198.561 53.7673 197.994 54.9267 197.451 56.16C196.958 57.344 196.563 58.5527 196.267 59.786C195.971 61.0193 195.823 62.154 195.823 63.19C195.823 64.1767 195.996 64.9907 196.341 65.632C196.736 66.2733 197.402 66.594 198.339 66.594C199.276 66.594 200.386 66.076 201.669 65.04C203.001 63.9547 204.259 62.7213 205.443 61.34C203.864 59.9093 202.73 58.3553 202.039 56.678C201.348 54.9513 201.003 52.8793 201.003 50.462C201.003 49.426 201.25 48.242 201.743 46.91C202.286 45.578 203.124 44.4187 204.259 43.432C205.443 42.4453 207.022 41.952 208.995 41.952C211.116 41.952 212.596 42.544 213.435 43.728C214.323 44.912 214.767 46.318 214.767 47.946C214.767 49.7713 214.274 51.8187 213.287 54.088C212.35 56.3573 211.215 58.5033 209.883 60.526C210.475 60.822 211.166 60.97 211.955 60.97C212.695 60.97 213.583 60.7973 214.619 60.452C215.655 60.1067 216.666 59.5393 217.653 58.75C218.64 57.9113 219.429 56.8013 220.021 55.42L221.353 56.382C220.268 58.898 218.812 60.748 216.987 61.932C215.211 63.0667 213.46 63.634 211.733 63.634C211.092 63.634 210.45 63.5847 209.809 63.486C209.168 63.338 208.576 63.1653 208.033 62.968C206.356 64.9413 204.432 66.668 202.261 68.148C200.09 69.628 197.895 70.368 195.675 70.368ZM207.367 58.972C208.551 57.2453 209.562 55.3953 210.401 53.422C211.24 51.4487 211.659 49.6233 211.659 47.946C211.659 46.8113 211.486 45.9973 211.141 45.504C210.796 44.9613 210.278 44.69 209.587 44.69C208.65 44.69 207.688 45.356 206.701 46.688C205.714 48.02 205.221 49.6973 205.221 51.72C205.221 52.756 205.394 54.014 205.739 55.494C206.134 56.974 206.676 58.1333 207.367 58.972ZM243.262 69.48C241.338 69.48 239.858 68.9867 238.822 68C237.836 67.0627 237.342 65.854 237.342 64.374C237.342 63.3873 237.515 62.3513 237.86 61.266C238.206 60.1313 238.551 58.9967 238.896 57.862C239.242 56.7273 239.414 55.642 239.414 54.606C239.414 53.5207 239.143 52.7807 238.6 52.386C238.107 51.942 237.515 51.72 236.824 51.72C235.344 51.72 233.815 52.3367 232.236 53.57C230.707 54.754 229.202 56.2587 227.722 58.084C226.292 59.9093 224.935 61.8087 223.652 63.782C222.37 65.7553 221.26 67.5313 220.322 69.11C219.385 69.11 218.497 68.9373 217.658 68.592C216.82 68.296 216.104 67.7533 215.512 66.964C215.562 66.7173 215.858 65.9773 216.4 64.744C216.894 63.4613 217.461 61.9567 218.102 60.23C218.744 58.454 219.311 56.604 219.804 54.68C220.298 52.756 220.544 51.0047 220.544 49.426C220.89 49.0313 221.408 48.6367 222.098 48.242C222.838 47.8473 223.603 47.65 224.392 47.65C226.119 47.65 226.982 48.39 226.982 49.87C226.982 50.462 226.859 51.35 226.612 52.534C226.415 53.6687 226.119 54.976 225.724 56.456C227.007 54.7293 228.413 53.1013 229.942 51.572C231.472 50.0427 233.05 48.8093 234.678 47.872C236.356 46.8853 238.033 46.392 239.71 46.392C241.832 46.392 243.386 47.1073 244.372 48.538C245.408 49.9687 245.926 51.5473 245.926 53.274C245.926 54.754 245.68 56.1353 245.186 57.418C244.693 58.7007 244.2 59.9093 243.706 61.044C243.262 62.1787 243.04 63.2887 243.04 64.374C243.04 65.1633 243.213 65.7307 243.558 66.076C243.953 66.372 244.372 66.52 244.816 66.52C246 66.52 247.234 65.9527 248.516 64.818C249.799 63.6833 251.008 62.2527 252.142 60.526C253.326 58.75 254.362 56.974 255.25 55.198L256.508 56.234C255.472 58.6513 254.288 60.8713 252.956 62.894C251.674 64.8673 250.218 66.4707 248.59 67.704C247.012 68.888 245.236 69.48 243.262 69.48ZM257.445 71.478C255.817 71.478 254.411 70.9353 253.227 69.85C251.993 68.7647 251.377 67.1367 251.377 64.966C251.377 63.2393 251.771 61.3647 252.561 59.342C253.35 57.3193 254.435 55.3213 255.817 53.348C257.198 51.3747 258.777 49.5987 260.553 48.02C262.329 46.392 264.228 45.0847 266.251 44.098C268.273 43.1113 270.296 42.618 272.319 42.618C274.44 42.618 276.241 43.1607 277.721 44.246C279.201 45.3313 279.941 46.762 279.941 48.538C279.941 49.87 279.472 50.832 278.535 51.424C277.597 52.016 276.487 52.1887 275.205 51.942C275.303 51.498 275.377 51.054 275.427 50.61C275.525 50.166 275.575 49.6973 275.575 49.204C275.575 48.2173 275.377 47.3293 274.983 46.54C274.588 45.7507 273.749 45.356 272.467 45.356C271.085 45.356 269.679 45.8247 268.249 46.762C266.818 47.6993 265.437 48.9327 264.105 50.462C262.822 51.942 261.663 53.5947 260.627 55.42C259.591 57.196 258.777 58.9473 258.185 60.674C257.593 62.4007 257.297 63.9547 257.297 65.336C257.297 66.9147 257.864 67.704 258.999 67.704C260.133 67.704 261.391 67.1613 262.773 66.076C264.154 64.9413 265.535 63.5353 266.917 61.858C268.347 60.1807 269.704 58.4787 270.987 56.752C272.269 54.976 273.379 53.4713 274.317 52.238C274.465 51.9913 274.662 51.868 274.909 51.868C275.106 51.9173 275.476 52.0407 276.019 52.238C276.611 52.386 277.153 52.6327 277.647 52.978C278.14 53.3233 278.387 53.7673 278.387 54.31C278.387 54.8033 278.165 55.4447 277.721 56.234C277.326 56.974 276.833 57.8127 276.241 58.75C275.698 59.638 275.205 60.5507 274.761 61.488C274.366 62.376 274.169 63.2393 274.169 64.078C274.169 64.7193 274.341 65.336 274.687 65.928C275.032 66.4707 275.599 66.742 276.389 66.742C277.573 66.742 279.225 65.8787 281.347 64.152C283.517 62.376 285.713 59.3913 287.933 55.198L289.339 56.604C288.155 59.268 286.724 61.636 285.047 63.708C283.419 65.7307 281.692 67.3093 279.867 68.444C278.041 69.628 276.191 70.22 274.317 70.22C272.294 70.22 270.789 69.5787 269.803 68.296C268.816 67.0133 268.273 65.632 268.175 64.152C268.175 64.0533 268.175 63.9793 268.175 63.93C268.175 63.8807 268.175 63.8313 268.175 63.782C266.201 66.15 264.376 68.0247 262.699 69.406C261.071 70.7873 259.319 71.478 257.445 71.478ZM292.916 71.404C290.745 71.404 288.994 70.7627 287.662 69.48C286.33 68.1973 285.664 66.2487 285.664 63.634C285.664 61.6113 286.034 59.0953 286.774 56.086C287.563 53.0767 288.55 49.9687 289.734 46.762C289.388 46.6633 288.969 46.5893 288.476 46.54C288.032 46.4413 287.588 46.2933 287.144 46.096V43.802C287.933 43.9007 288.574 43.9747 289.068 44.024C289.61 44.0733 290.153 44.1227 290.696 44.172C291.732 41.5573 292.842 39.0413 294.026 36.624C295.259 34.1573 296.468 31.962 297.652 30.038C298.885 28.114 300.044 26.6093 301.13 25.524C302.215 24.3893 303.177 23.822 304.016 23.822C304.509 23.822 304.978 24.0193 305.422 24.414C305.866 24.7593 306.088 25.2773 306.088 25.968C306.088 26.9547 305.57 28.3607 304.534 30.186C303.547 32.0113 302.314 34.1573 300.834 36.624C299.354 39.0413 297.923 41.6313 296.542 44.394C296.936 44.394 297.331 44.394 297.726 44.394C298.12 44.394 298.49 44.394 298.836 44.394C301.006 44.394 302.955 44.3693 304.682 44.32C306.458 44.2213 308.258 44.0733 310.084 43.876V46.318C307.37 46.5647 304.879 46.762 302.61 46.91C300.34 47.058 298.17 47.1567 296.098 47.206C295.95 47.206 295.802 47.206 295.654 47.206C295.506 47.206 295.358 47.206 295.21 47.206C294.174 49.6233 293.261 52.1147 292.472 54.68C291.732 57.196 291.362 59.6627 291.362 62.08C291.362 64.1027 291.682 65.5333 292.324 66.372C292.965 67.2107 293.976 67.63 295.358 67.63C297.824 67.63 300.34 66.52 302.906 64.3C305.52 62.0307 307.79 58.972 309.714 55.124L310.75 55.864C309.467 58.7747 307.864 61.414 305.94 63.782C304.065 66.15 302.018 68 299.798 69.332C297.578 70.7133 295.284 71.404 292.916 71.404ZM316.084 71.256C312.927 71.256 310.485 70.3927 308.758 68.666C307.081 66.9887 306.242 64.8673 306.242 62.302C306.242 60.1313 306.785 57.8373 307.87 55.42C309.005 52.9533 310.509 50.6593 312.384 48.538C314.259 46.3673 316.331 44.616 318.6 43.284C320.869 41.952 323.139 41.286 325.408 41.286C326.691 41.286 327.899 41.6313 329.034 42.322C330.218 42.9633 330.81 44.2707 330.81 46.244C330.81 48.1187 330.267 49.87 329.182 51.498C328.097 53.126 326.641 54.5813 324.816 55.864C322.991 57.1467 320.968 58.2073 318.748 59.046C316.577 59.8353 314.382 60.3533 312.162 60.6C312.113 60.7973 312.063 61.0193 312.014 61.266C312.014 61.4633 312.014 61.8087 312.014 62.302C312.014 62.5487 312.039 62.9927 312.088 63.634C312.187 64.226 312.409 64.8673 312.754 65.558C313.099 66.2487 313.667 66.8407 314.456 67.334C315.245 67.8273 316.331 68.074 317.712 68.074C319.784 68.074 321.856 67.5067 323.928 66.372C326.049 65.188 328.023 63.634 329.848 61.71C331.723 59.786 333.277 57.64 334.51 55.272L335.99 56.456C334.658 59.416 332.931 62.006 330.81 64.226C328.738 66.446 326.419 68.1727 323.854 69.406C321.338 70.6393 318.748 71.256 316.084 71.256ZM312.976 57.862C314.259 57.714 315.689 57.27 317.268 56.53C318.847 55.79 320.351 54.8527 321.782 53.718C323.262 52.5833 324.471 51.35 325.408 50.018C326.345 48.6367 326.814 47.2553 326.814 45.874C326.814 45.3313 326.715 44.9613 326.518 44.764C326.321 44.5667 326 44.468 325.556 44.468C324.421 44.468 323.237 44.8873 322.004 45.726C320.771 46.5153 319.562 47.576 318.378 48.908C317.194 50.1907 316.133 51.6213 315.196 53.2C314.259 54.7787 313.519 56.3327 312.976 57.862ZM369.185 74.438C366.324 74.438 363.586 73.9447 360.971 72.958C358.406 71.9713 356.309 70.4667 354.681 68.444C353.053 66.4213 352.239 63.9053 352.239 60.896C352.239 58.232 352.831 56.16 354.015 54.68C355.199 53.1507 356.679 52.09 358.455 51.498C360.231 50.906 361.958 50.61 363.635 50.61C362.057 52.2873 360.848 54.014 360.009 55.79C359.22 57.566 358.825 59.268 358.825 60.896C358.825 62.5733 359.245 64.152 360.083 65.632C360.971 67.0627 362.279 68.222 364.005 69.11C365.732 70.0473 367.878 70.516 370.443 70.516C372.663 70.516 374.809 70.146 376.881 69.406C379.003 68.666 380.729 67.556 382.061 66.076C383.443 64.596 384.133 62.746 384.133 60.526C384.133 58.5033 383.541 56.7767 382.357 55.346C381.223 53.866 379.743 52.5587 377.917 51.424C376.092 50.24 374.168 49.13 372.145 48.094C370.123 47.0087 368.199 45.8493 366.373 44.616C364.548 43.3827 363.043 41.952 361.859 40.324C360.725 38.696 360.157 36.7473 360.157 34.478C360.157 32.4553 360.651 30.3093 361.637 28.04C362.673 25.7213 364.129 23.5507 366.003 21.528C367.878 19.5053 370.147 17.8773 372.811 16.644C375.475 15.3613 378.435 14.72 381.691 14.72C385.095 14.72 387.488 15.4353 388.869 16.866C390.251 18.2967 390.941 20.1713 390.941 22.49C390.941 24.3153 390.621 26.264 389.979 28.336C389.338 30.408 388.549 32.3813 387.611 34.256C386.723 36.1307 385.86 37.734 385.021 39.066C383.936 38.8193 383.122 38.4 382.579 37.808C382.037 37.1667 381.765 36.328 381.765 35.292C381.765 34.256 381.963 33.0967 382.357 31.814C382.801 30.5313 383.295 29.1993 383.837 27.818C384.429 26.4367 384.923 25.1047 385.317 23.822C385.761 22.49 385.983 21.3307 385.983 20.344C385.983 19.456 385.712 18.7653 385.169 18.272C384.676 17.7787 383.64 17.532 382.061 17.532C379.693 17.532 377.523 18.05 375.549 19.086C373.576 20.122 371.849 21.4293 370.369 23.008C368.939 24.5867 367.829 26.264 367.039 28.04C366.25 29.7667 365.855 31.3453 365.855 32.776C365.855 34.552 366.423 36.0813 367.557 37.364C368.692 38.5973 370.147 39.732 371.923 40.768C373.749 41.804 375.648 42.84 377.621 43.876C379.644 44.912 381.543 46.0713 383.319 47.354C385.145 48.6367 386.625 50.166 387.759 51.942C388.894 53.718 389.461 55.8887 389.461 58.454C389.461 61.0193 388.869 63.2887 387.685 65.262C386.551 67.2353 384.997 68.888 383.023 70.22C381.05 71.6013 378.855 72.6373 376.437 73.328C374.069 74.068 371.652 74.438 369.185 74.438ZM398.074 71.478C396.446 71.478 395.04 70.9353 393.856 69.85C392.622 68.7647 392.006 67.1367 392.006 64.966C392.006 63.2393 392.4 61.3647 393.19 59.342C393.979 57.3193 395.064 55.3213 396.446 53.348C397.827 51.3747 399.406 49.5987 401.182 48.02C402.958 46.392 404.857 45.0847 406.88 44.098C408.902 43.1113 410.925 42.618 412.948 42.618C415.069 42.618 416.87 43.1607 418.35 44.246C419.83 45.3313 420.57 46.762 420.57 48.538C420.57 49.87 420.101 50.832 419.164 51.424C418.226 52.016 417.116 52.1887 415.834 51.942C415.932 51.498 416.006 51.054 416.056 50.61C416.154 50.166 416.204 49.6973 416.204 49.204C416.204 48.2173 416.006 47.3293 415.612 46.54C415.217 45.7507 414.378 45.356 413.096 45.356C411.714 45.356 410.308 45.8247 408.878 46.762C407.447 47.6993 406.066 48.9327 404.734 50.462C403.451 51.942 402.292 53.5947 401.256 55.42C400.22 57.196 399.406 58.9473 398.814 60.674C398.222 62.4007 397.926 63.9547 397.926 65.336C397.926 66.9147 398.493 67.704 399.628 67.704C400.762 67.704 402.02 67.1613 403.402 66.076C404.783 64.9413 406.164 63.5353 407.546 61.858C408.976 60.1807 410.333 58.4787 411.616 56.752C412.898 54.976 414.008 53.4713 414.946 52.238C415.094 51.9913 415.291 51.868 415.538 51.868C415.735 51.9173 416.105 52.0407 416.648 52.238C417.24 52.386 417.782 52.6327 418.276 52.978C418.769 53.3233 419.016 53.7673 419.016 54.31C419.016 54.8033 418.794 55.4447 418.35 56.234C417.955 56.974 417.462 57.8127 416.87 58.75C416.327 59.638 415.834 60.5507 415.39 61.488C414.995 62.376 414.798 63.2393 414.798 64.078C414.798 64.7193 414.97 65.336 415.316 65.928C415.661 66.4707 416.228 66.742 417.018 66.742C418.202 66.742 419.854 65.8787 421.976 64.152C424.146 62.376 426.342 59.3913 428.562 55.198L429.968 56.604C428.784 59.268 427.353 61.636 425.676 63.708C424.048 65.7307 422.321 67.3093 420.496 68.444C418.67 69.628 416.82 70.22 414.946 70.22C412.923 70.22 411.418 69.5787 410.432 68.296C409.445 67.0133 408.902 65.632 408.804 64.152C408.804 64.0533 408.804 63.9793 408.804 63.93C408.804 63.8807 408.804 63.8313 408.804 63.782C406.83 66.15 405.005 68.0247 403.328 69.406C401.7 70.7873 399.948 71.478 398.074 71.478ZM430.955 71.478C429.327 71.478 427.921 70.9353 426.737 69.85C425.503 68.7647 424.887 67.1367 424.887 64.966C424.887 63.2393 425.281 61.3647 426.071 59.342C426.86 57.3193 427.945 55.3213 429.327 53.348C430.708 51.3747 432.287 49.5987 434.063 48.02C435.839 46.392 437.738 45.0847 439.761 44.098C441.783 43.1113 443.806 42.618 445.829 42.618C447.95 42.618 449.751 43.1607 451.231 44.246C452.711 45.3313 453.451 46.762 453.451 48.538C453.451 49.87 452.982 50.832 452.045 51.424C451.107 52.016 449.997 52.1887 448.715 51.942C448.813 51.498 448.887 51.054 448.937 50.61C449.035 50.166 449.085 49.6973 449.085 49.204C449.085 48.2173 448.887 47.3293 448.493 46.54C448.098 45.7507 447.259 45.356 445.977 45.356C444.595 45.356 443.189 45.8247 441.759 46.762C440.328 47.6993 438.947 48.9327 437.615 50.462C436.332 51.942 435.173 53.5947 434.137 55.42C433.101 57.196 432.287 58.9473 431.695 60.674C431.103 62.4007 430.807 63.9547 430.807 65.336C430.807 66.9147 431.374 67.704 432.509 67.704C433.643 67.704 434.901 67.1613 436.283 66.076C437.664 64.9413 439.045 63.5353 440.427 61.858C441.857 60.1807 443.214 58.4787 444.497 56.752C445.779 54.976 446.889 53.4713 447.827 52.238C447.975 51.9913 448.172 51.868 448.419 51.868C448.616 51.9173 448.986 52.0407 449.529 52.238C450.121 52.386 450.663 52.6327 451.157 52.978C451.65 53.3233 451.897 53.7673 451.897 54.31C451.897 54.8033 451.675 55.4447 451.231 56.234C450.836 56.974 450.343 57.8127 449.751 58.75C449.208 59.638 448.715 60.5507 448.271 61.488C447.876 62.376 447.679 63.2393 447.679 64.078C447.679 64.7193 447.851 65.336 448.197 65.928C448.542 66.4707 449.109 66.742 449.899 66.742C451.083 66.742 452.735 65.8787 454.857 64.152C457.027 62.376 459.223 59.3913 461.443 55.198L462.849 56.604C461.665 59.268 460.234 61.636 458.557 63.708C456.929 65.7307 455.202 67.3093 453.377 68.444C451.551 69.628 449.701 70.22 447.827 70.22C445.804 70.22 444.299 69.5787 443.313 68.296C442.326 67.0133 441.783 65.632 441.685 64.152C441.685 64.0533 441.685 63.9793 441.685 63.93C441.685 63.8807 441.685 63.8313 441.685 63.782C439.711 66.15 437.886 68.0247 436.209 69.406C434.581 70.7873 432.829 71.478 430.955 71.478ZM466.721 71.404C464.403 71.404 462.553 70.7627 461.171 69.48C459.839 68.1973 459.173 66.2733 459.173 63.708C459.173 62.2773 459.371 60.5753 459.765 58.602C460.16 56.6287 460.678 54.532 461.319 52.312C462.01 50.0427 462.75 47.8227 463.539 45.652C463.095 45.504 462.676 45.3807 462.281 45.282C461.936 45.134 461.467 44.9367 460.875 44.69V42.396C461.763 42.544 462.429 42.692 462.873 42.84C463.317 42.9387 463.86 43.0373 464.501 43.136C465.883 39.6333 467.363 36.402 468.941 33.442C470.52 30.482 472.049 28.114 473.529 26.338C475.009 24.562 476.292 23.674 477.377 23.674C477.92 23.674 478.413 23.8713 478.857 24.266C479.301 24.6607 479.523 25.1047 479.523 25.598C479.523 26.19 479.227 27.152 478.635 28.484C478.043 29.816 477.279 31.3207 476.341 32.998C475.453 34.626 474.541 36.254 473.603 37.882C472.715 39.51 471.901 40.916 471.161 42.1C470.471 43.284 470.051 44.0487 469.903 44.394C471.186 44.5913 472.37 44.764 473.455 44.912C474.541 45.0107 475.626 45.06 476.711 45.06C478.142 45.06 479.622 44.9613 481.151 44.764C482.681 44.5667 484.383 44.2953 486.257 43.95C487.589 40.398 489.069 36.92 490.697 33.516C492.325 30.0627 493.978 26.9793 495.655 24.266C497.382 21.5033 499.01 19.308 500.539 17.68C502.118 16.0027 503.499 15.164 504.683 15.164C505.67 15.164 506.435 15.7313 506.977 16.866C507.52 17.9513 507.791 19.1353 507.791 20.418C507.791 22.046 507.372 24.0193 506.533 26.338C505.695 28.6567 504.535 31.0493 503.055 33.516C501.575 35.9827 499.824 38.3013 497.801 40.472C495.828 42.6427 493.682 44.394 491.363 45.726C490.722 47.206 490.13 49.056 489.587 51.276C489.094 53.4467 488.699 55.568 488.403 57.64C488.107 59.712 487.959 61.3647 487.959 62.598C489.143 59.49 490.475 56.6287 491.955 54.014C493.435 51.3993 495.088 49.3027 496.913 47.724C498.788 46.1453 500.811 45.356 502.981 45.356C505.251 45.356 506.903 46.1207 507.939 47.65C508.975 49.13 509.493 50.758 509.493 52.534C509.493 53.9647 509.222 55.42 508.679 56.9C508.186 58.3307 507.668 59.712 507.125 61.044C506.632 62.3267 506.385 63.486 506.385 64.522C506.385 65.41 506.583 66.0267 506.977 66.372C507.421 66.7173 507.89 66.89 508.383 66.89C509.469 66.89 510.727 66.3473 512.157 65.262C513.637 64.1273 515.068 62.6473 516.449 60.822C517.88 58.9967 519.064 57.048 520.001 54.976L521.407 56.308C520.322 58.7747 519.015 61.044 517.485 63.116C515.956 65.188 514.254 66.816 512.379 68C510.554 69.2333 508.605 69.85 506.533 69.85C504.659 69.85 503.203 69.3567 502.167 68.37C501.181 67.3833 500.687 66.15 500.687 64.67C500.687 63.634 500.86 62.524 501.205 61.34C501.6 60.1067 501.97 58.8487 502.315 57.566C502.661 56.2833 502.833 55.0993 502.833 54.014C502.833 52.8793 502.587 52.0653 502.093 51.572C501.649 51.0787 501.033 50.832 500.243 50.832C499.059 50.832 497.974 51.3253 496.987 52.312C496.05 53.2493 495.187 54.4827 494.397 56.012C493.608 57.5413 492.868 59.1693 492.177 60.896C491.487 62.5733 490.796 64.1767 490.105 65.706C489.464 67.2353 488.773 68.4687 488.033 69.406C487.343 70.3927 486.578 70.886 485.739 70.886C484.999 70.886 484.383 70.516 483.889 69.776C483.445 69.036 483.075 68.148 482.779 67.112C482.483 66.076 482.286 65.0647 482.187 64.078C482.089 63.042 482.039 62.2527 482.039 61.71C480.066 64.5713 477.747 66.89 475.083 68.666C472.469 70.4913 469.681 71.404 466.721 71.404ZM468.867 67.704C471.334 67.704 473.801 66.6433 476.267 64.522C478.783 62.3513 480.954 59.3913 482.779 55.642C483.075 54.162 483.396 52.756 483.741 51.424C484.087 50.092 484.531 48.6367 485.073 47.058C483.593 47.354 482.163 47.576 480.781 47.724C479.4 47.872 478.043 47.946 476.711 47.946C475.379 47.946 474.047 47.872 472.715 47.724C471.383 47.576 470.027 47.3787 468.645 47.132C467.56 49.5493 466.672 51.9913 465.981 54.458C465.291 56.9247 464.945 59.4407 464.945 62.006C464.945 64.0287 465.217 65.484 465.759 66.372C466.351 67.26 467.387 67.704 468.867 67.704ZM492.843 41.064C494.274 39.8307 495.606 38.4493 496.839 36.92C498.073 35.3907 499.158 33.8367 500.095 32.258C501.082 30.63 501.896 29.1007 502.537 27.67C503.228 26.19 503.697 24.9073 503.943 23.822C504.091 23.1313 504.165 22.5887 504.165 22.194C503.771 22.2927 503.129 22.8353 502.241 23.822C501.403 24.8087 500.416 26.1653 499.281 27.892C498.147 29.5693 497.012 31.5427 495.877 33.812C494.743 36.032 493.731 38.4493 492.843 41.064ZM524.147 70.22C521.976 70.22 520.348 69.5787 519.263 68.296C518.177 67.0133 517.635 65.4593 517.635 63.634C517.635 62.4993 517.832 61.0687 518.227 59.342C518.621 57.6153 519.164 55.8147 519.855 53.94C520.595 52.016 521.433 50.2153 522.371 48.538C523.308 46.8607 524.319 45.504 525.405 44.468C526.49 43.3827 527.575 42.84 528.661 42.84C529.253 42.84 529.771 43.0373 530.215 43.432C530.659 43.7773 530.881 44.2953 530.881 44.986C530.881 45.6273 530.486 46.5893 529.697 47.872C528.957 49.1547 528.069 50.6347 527.033 52.312C526.046 53.9893 525.158 55.7407 524.369 57.566C523.629 59.342 523.259 61.044 523.259 62.672C523.259 64.2507 523.53 65.3113 524.073 65.854C524.665 66.3473 525.503 66.594 526.589 66.594C528.266 66.594 530.091 65.7553 532.065 64.078C534.038 62.4007 536.085 59.4653 538.207 55.272L539.317 56.456C537.59 60.7973 535.395 64.1767 532.731 66.594C530.067 69.0113 527.205 70.22 524.147 70.22ZM532.879 36.846C531.941 36.846 531.078 36.624 530.289 36.18C529.549 35.6867 529.179 34.9467 529.179 33.96C529.179 32.776 529.82 31.7647 531.103 30.926C532.385 30.0873 533.717 29.668 535.099 29.668C535.987 29.668 536.727 29.8653 537.319 30.26C537.96 30.6547 538.281 31.37 538.281 32.406C538.281 33.442 537.713 34.4533 536.579 35.44C535.444 36.3773 534.211 36.846 532.879 36.846Z" fill="#00715D"/>
</svg>
